Coordinates
version=1
nRows=15
nColumns=27
inDegrees=yes

Units are S.I. units (second, meters, Newtons, ...)
If the header above contains a line with 'inDegrees', this indicates whether rotational values are in degrees (yes) or radians (no).

endheader
time	pelvis_rotation	pelvis_tilt	pelvis_list	pelvis_tx	pelvis_ty	pelvis_tz	hip_flexion_r	hip_adduction_r	hip_rotation_r	knee_angle_r	knee_rotation_r	knee_adduction_r	knee_angle_r_beta	ankle_angle_r	subtalar_angle_r	mtp_angle_r	hip_flexion_l	hip_adduction_l	hip_rotation_l	knee_angle_l	knee_rotation_l	knee_adduction_l	knee_angle_l_beta	ankle_angle_l	subtalar_angle_l	mtp_angle_l
      4.38000000	      4.32406227	    -22.06032945	      3.34867165	      0.00597587	      0.44207376	     -1.11591607	    121.14187973	    -43.72562883	     20.66498188	    109.48934191	     -9.85057900	      9.92761569	      1.91094951	     17.28611274	      2.49210766	      0.00000000	    115.46978091	    -39.09465922	     14.72687080	    102.90136432	     -9.80646364	     -9.94060724	      1.79596761	     16.12141356	     16.66820576	      0.00000000
      4.38500000	      4.38528363	    -22.06493930	      3.39959368	      0.00613211	      0.44137904	     -1.11599512	    121.28522206	    -43.68360778	     20.84314832	    109.58247787	     -9.85256048	      9.92747697	      1.91257504	     17.28349673	      2.33032313	      0.00000000	    115.55342961	    -39.05968978	     14.74531100	    102.98958613	     -9.80711714	     -9.94075491	      1.79750737	     16.10752417	     16.70772559	      0.00000000
      4.39000000	      4.35322499	    -22.06924438	      3.37449488	      0.00632239	      0.44073652	     -1.11609087	    121.30895800	    -43.58689547	     20.89274922	    109.66033219	     -9.85312130	      9.92755887	      1.91393386	     17.28111493	      2.19847542	      0.00000000	    115.70791343	    -39.10570003	     14.85615783	    103.10023167	     -9.80977509	     -9.94081497	      1.79943850	     16.14661826	     16.71564592	      0.00000000
      4.39500000	      4.53347864	    -22.06510376	      3.41567058	      0.00651867	      0.44013526	     -1.11622552	    121.45155409	    -43.71579878	     21.08984213	    109.73558407	     -9.85429466	      9.92757902	      1.91524725	     17.28761377	      2.12602462	      0.00000000	    115.76796306	    -38.91403409	     14.85417392	    103.18760047	     -9.81099266	     -9.94087887	      1.80096338	     16.15376265	     16.67770432	      0.00000000
      4.40000000	      4.55958799	    -22.07923965	      3.43002054	      0.00670680	      0.43961297	     -1.11631810	    121.52409354	    -43.65997337	     21.19039529	    109.81044751	     -9.85531714	      9.92761342	      1.91655386	     17.27576113	      1.95305968	      0.00000000	    115.86110959	    -38.90137629	     14.89864582	    103.27301862	     -9.81204262	     -9.94097602	      1.80245420	     16.19030316	     16.68947364	      0.00000000
      4.40500000	      4.65629211	    -22.08846972	      3.46162773	      0.00688634	      0.43915345	     -1.11644745	    121.60995178	    -43.69097918	     21.32759242	    109.86568640	     -9.85615508	      9.92752472	      1.91751796	     17.32136522	      1.86272430	      0.00000000	    115.92155881	    -38.80238518	     14.89833553	    103.34786939	     -9.81286361	     -9.94113127	      1.80376060	     16.19288040	     16.63517537	      0.00000000
      4.41000000	      4.71564835	    -22.13360832	      3.50705671	      0.00704206	      0.43871400	     -1.11656973	    121.74279763	    -43.65965883	     21.47068128	    109.92503896	     -9.85690646	      9.92734985	      1.91855386	     17.31177743	      1.73836616	      0.00000000	    115.99930567	    -38.75793801	     14.89230908	    103.41490437	     -9.81352086	     -9.94118607	      1.80493058	     16.22939142	     16.64922259	      0.00000000
      4.41500000	      4.60331757	    -22.17865780	      3.46424138	      0.00714755	      0.43836022	     -1.11665131	    121.71171886	    -43.45684466	     21.42170060	    109.96800757	     -9.85735382	      9.92738670	      1.91930380	     17.22047197	      1.49284893	      0.00000000	    116.16297879	    -38.86772807	     15.00848174	    103.49499482	     -9.81469240	     -9.94115046	      1.80632842	     16.22234866	     16.63513160	      0.00000000
      4.42000000	      4.80036970	    -22.17021956	      3.49976874	      0.00738531	      0.43803279	     -1.11681765	    121.80783403	    -43.63031974	     21.59231372	    110.01404376	     -9.85776857	      9.92715749	      1.92010729	     17.27269473	      1.50270350	      0.00000000	    116.16245064	    -38.64213620	     14.97952874	    103.55798399	     -9.81552395	     -9.94112150	      1.80742779	     16.25666096	     16.57981163	      0.00000000
      4.42500000	      4.81646799	    -22.21031327	      3.56435486	      0.00749713	      0.43777683	     -1.11694343	    121.91352340	    -43.53482893	     21.72865328	    110.05509019	     -9.85796501	      9.92698347	      1.92082368	     17.24058250	      1.37052844	      0.00000000	    116.18534147	    -38.64452375	     14.92284812	    103.60619590	     -9.81607907	     -9.94114912	      1.80826924	     16.27335594	     16.52955820	      0.00000000
      4.43000000	      4.90706230	    -22.26588779	      3.56531903	      0.00760804	      0.43758742	     -1.11708367	    121.97702879	    -43.57675088	     21.78069359	    110.07581148	     -9.85852991	      9.92695342	      1.92118534	     17.21276967	      1.22524967	      0.00000000	    116.27148581	    -38.51822136	     14.93986637	    103.65904503	     -9.81576681	     -9.94116148	      1.80919164	     16.28342028	     16.45793572	      0.00000000
      4.43500000	      4.97119953	    -22.31555301	      3.53783192	      0.00773220	      0.43743640	     -1.11723405	    121.99748200	    -43.61265340	     21.79675506	    110.09201105	     -9.85840015	      9.92663344	      1.92146807	     17.20931683	      1.16051159	      0.00000000	    116.37397308	    -38.40336299	     14.99306500	    103.71042655	     -9.81604388	     -9.94110129	      1.81008841	     16.27526001	     16.40046003	      0.00000000
      4.44000000	      4.96430522	    -22.37591873	      3.62184025	      0.00778804	      0.43731404	     -1.11736103	    122.12011157	    -43.47222889	     21.93170384	    110.12133193	     -9.85820680	      9.92640697	      1.92197982	     17.14058868	      1.00844802	      0.00000000	    116.37850662	    -38.43528636	     14.90392630	    103.74026160	     -9.81653374	     -9.94100719	      1.81060913	     16.27355709	     16.36573934	      0.00000000
      4.44500000	      5.10292469	    -22.45705959	      3.71213287	      0.00790446	      0.43722038	     -1.11752863	    122.31357860	    -43.54025022	     22.10865689	    110.14131229	     -9.85862160	      9.92644614	      1.92232854	     17.20607484	      0.92461853	      0.00000000	    116.39717171	    -38.29584585	     14.79110041	    103.77583753	     -9.81540022	     -9.94081478	      1.81123005	     16.28721601	     16.26264296	      0.00000000
      4.45000000	      5.14713253	    -22.50229910	      3.61140376	      0.00789349	      0.43730456	     -1.11767159	    122.20867387	    -43.58354739	     21.98422657	    110.11644519	     -9.85817110	      9.92594350	      1.92189453	     17.10077817	      0.82110937	      0.00000000	    116.51422367	    -38.14452406	     14.90998162	    103.80022365	     -9.81526960	     -9.94093895	      1.81165567	     16.25764800	     16.17857224	      0.00000000
